<svg width="190" height="82" viewBox="0 0 190 82" fill="none" xmlns="http://www.w3.org/2000/svg">
<g clip-path="url(#clip0_6859_83642)">
<path fill-rule="evenodd" clip-rule="evenodd" d="M32.1289 59.5391H69.9754V21.6926H32.1289V59.5391ZM59.9458 44.4344C60.5023 43.8779 60.8149 43.1232 60.8149 42.3363C60.8149 41.5494 60.5023 40.7947 59.9458 40.2382C59.3894 39.6818 58.6347 39.3692 57.8478 39.3692C57.0608 39.3692 56.3061 39.6818 55.7497 40.2382C55.1932 40.7947 54.8806 41.5494 54.8806 42.3363C54.8806 43.1232 55.1932 43.8779 55.7497 44.4344C56.3061 44.9908 57.0608 45.3034 57.8478 45.3034C58.6347 45.3034 59.3894 44.9908 59.9458 44.4344ZM41.6073 52.1715H46.7133L56.7228 29.0608H51.6168L41.6073 52.1715Z" fill="#171E16"/>
<path fill-rule="evenodd" clip-rule="evenodd" d="M89.7699 43.1933L86.917 35.0722L84.0645 43.1933H89.7699ZM90.7466 45.9684H83.0874L81.8287 49.5921H78.6164L85.144 31.6033H88.6903L95.1925 49.5921H92.0056L90.7466 45.9684ZM108.453 41.7028V49.5921H105.677V41.9852C105.677 40.0324 104.547 39.0051 102.799 39.0051C100.974 39.0051 99.535 40.0839 99.535 42.705V49.5921H96.76V36.743H99.535V38.3875C100.383 37.051 101.771 36.4087 103.519 36.4087C106.397 36.4087 108.453 38.3615 108.453 41.7028ZM120.933 43.1682C120.933 40.7781 119.186 39.0562 116.872 39.0562C114.56 39.0562 112.813 40.7776 112.813 43.1682C112.813 45.5575 114.56 47.2798 116.872 47.2798C119.186 47.2798 120.933 45.5575 120.933 43.1682ZM123.661 36.743V49.5921H120.885V47.7417H120.758C119.732 49.0847 118.074 49.8624 116.135 49.8624C112.64 49.8624 109.989 46.9705 109.989 43.1678C109.989 39.3382 112.822 36.4883 116.317 36.4883C118.516 36.4883 119.596 37.304 120.757 38.567H120.885V36.7426L123.661 36.743ZM130.589 39.416V45.5839C130.589 47.2279 131.667 47.2019 133.775 47.0994V49.5925C129.509 50.1064 127.813 48.9243 127.813 45.5834V39.4156H125.449V36.7426H127.813V33.1444H130.589V36.743H133.775V39.416H130.589Z" fill="#171E16"/>
<path fill-rule="evenodd" clip-rule="evenodd" d="M139.08 39.416V45.5839C139.08 47.2279 140.16 47.2019 142.266 47.0994V49.5925C138.001 50.1063 136.305 48.9243 136.305 45.5834V39.4156H133.144V36.7426H136.305V33.1444H139.08V36.743H142.266V39.416H139.08ZM154.124 43.1682C154.124 40.7781 152.377 39.0562 150.064 39.0562C147.751 39.0562 146.003 40.7776 146.003 43.1682C146.003 45.5575 147.751 47.2798 150.064 47.2798C152.377 47.2798 154.124 45.5575 154.124 43.1682ZM156.852 36.743V49.5921H154.077V47.7417H153.949C152.923 49.0847 151.265 49.8624 149.326 49.8624C145.83 49.8624 143.18 46.9705 143.18 43.1678C143.18 39.3382 146.013 36.4883 149.509 36.4883C151.707 36.4883 152.787 37.304 153.948 38.567H154.077V36.7426L156.852 36.743Z" fill="#171E16"/>
</g>
<defs>
<clipPath id="clip0_6859_83642">
<rect width="125" height="38.4948" fill="white" transform="translate(32 21.3215)"/>
</clipPath>
</defs>
</svg>
