<svg width="190" height="82" viewBox="0 0 190 82" fill="none" xmlns="http://www.w3.org/2000/svg">
<g clip-path="url(#clip0_6859_83664)">
<path d="M39.4492 59.8958H61.0515V62.9881H39.4492V59.8958Z" fill="#171E16"/>
<path d="M39.4492 53.9644H61.0515V57.0676H39.4492V53.9644Z" fill="#171E16"/>
<path d="M45.6133 48.0435H54.8792V51.1468H45.6133V48.0435Z" fill="#171E16"/>
<path d="M45.6133 42.123H54.8792V45.2264H45.6133V42.123Z" fill="#171E16"/>
<path d="M45.6133 36.2024H54.8792V39.3057H45.6133V36.2024Z" fill="#171E16"/>
<path d="M45.6133 30.2708H54.8792V33.3741H45.6133V30.2708Z" fill="#171E16"/>
<path d="M61.0515 24.3501H39.4492V27.4534H61.0515V24.3501Z" fill="#171E16"/>
<path d="M61.0515 18.4297H39.4492V21.533H61.0515V18.4297Z" fill="#171E16"/>
<path d="M64.1328 57.0672H97.3561C97.9173 56.1098 98.3354 55.0644 98.5887 53.9639H64.1328V57.0672Z" fill="#171E16"/>
<path d="M94.7721 42.123H70.3086V45.2264H97.3583C96.6539 44.0378 95.7845 42.9924 94.7721 42.123Z" fill="#171E16"/>
<path d="M70.3086 36.2024V39.3057H94.7721C95.8066 38.4364 96.6759 37.3909 97.3583 36.2024H70.3086Z" fill="#171E16"/>
<path d="M97.3562 24.3501H64.1328V27.4534H98.5887C98.3026 26.353 97.8844 25.3076 97.3562 24.3501Z" fill="#171E16"/>
<path d="M87.1437 18.4297H64.1328V21.533H95.0781C93.0092 19.6182 90.2031 18.4297 87.1437 18.4297Z" fill="#171E16"/>
<path d="M79.5635 30.2708H70.3086V33.3741H79.5635V30.2708Z" fill="#171E16"/>
<path d="M88.8281 33.3741H98.5123C98.7874 32.3837 98.9305 31.3382 98.9305 30.2708H88.8281V33.3741Z" fill="#171E16"/>
<path d="M70.3086 48.0435H79.5635V51.1468H70.3086V48.0435Z" fill="#171E16"/>
<path d="M88.8281 48.0435V51.1468H98.9305C98.9305 50.0793 98.7874 49.0339 98.5123 48.0435H88.8281Z" fill="#171E16"/>
<path d="M64.1328 62.9661L87.1437 62.9991C90.2251 62.9991 93.0092 61.8106 95.0891 59.8958H64.1328V62.9661Z" fill="#171E16"/>
<path d="M101.176 59.8958H116.604V62.9881H101.176V59.8958Z" fill="#171E16"/>
<path d="M101.176 53.9644H116.604V57.0676H101.176V53.9644Z" fill="#171E16"/>
<path d="M107.34 48.0435H116.606V51.1468H107.34V48.0435Z" fill="#171E16"/>
<path d="M107.34 42.123H116.606V45.2264H107.34V42.123Z" fill="#171E16"/>
<path d="M120.896 24.3501H101.176V27.4534H121.964L120.896 24.3501Z" fill="#171E16"/>
<path d="M118.849 18.4297H101.176V21.533H119.917L118.849 18.4297Z" fill="#171E16"/>
<path d="M135.113 59.8958H150.553V62.9881H135.113V59.8958Z" fill="#171E16"/>
<path d="M135.113 53.9644H150.553V57.0676H135.113V53.9644Z" fill="#171E16"/>
<path d="M135.113 48.0435H144.379V51.1468H135.113V48.0435Z" fill="#171E16"/>
<path d="M135.113 42.123H144.379V45.2264H135.113V42.123Z" fill="#171E16"/>
<path d="M135.116 39.3057H144.382V36.2024H135.116H126.73L125.861 38.7116L124.991 36.2024H116.606H107.34V39.3057H116.606V36.4555L117.585 39.3057H134.136L135.116 36.4555V39.3057Z" fill="#171E16"/>
<path d="M144.379 30.2708H128.775L127.707 33.3741H144.379V30.2708Z" fill="#171E16"/>
<path d="M132.88 18.4297L131.812 21.533H150.554V18.4297H132.88Z" fill="#171E16"/>
<path d="M125.86 62.9661L126.928 59.8958H124.793L125.86 62.9661Z" fill="#171E16"/>
<path d="M123.812 57.0676H127.906L129.006 53.9644H122.723L123.812 57.0676Z" fill="#171E16"/>
<path d="M121.734 51.1468H129.988L131.077 48.0435H120.645L121.734 51.1468Z" fill="#171E16"/>
<path d="M119.665 45.2264H132.067L133.124 42.123H118.598L119.665 45.2264Z" fill="#171E16"/>
<path d="M107.34 33.3741H124.012L122.945 30.2708H107.34V33.3741Z" fill="#171E16"/>
<path d="M129.766 27.4534H150.554V24.3501H130.822L129.766 27.4534Z" fill="#171E16"/>
</g>
<defs>
<clipPath id="clip0_6859_83664">
<rect width="111.104" height="44.5692" fill="white" transform="translate(39.4492 18.4297)"/>
</clipPath>
</defs>
</svg>
