<svg xmlns="http://www.w3.org/2000/svg" xmlns:svg="http://www.w3.org/2000/svg" width="190" height="82" viewBox="0 0 190 82" version="1.1" id="svg1" xml:space="preserve"><defs id="defs1"/><g id="layer1"><path d="m 139.68554,25.6503 5.80951,31.823482 h -9.21865 l -2.30742,-18.308434 -5.04193,18.308434 h -8.27339 l -5.0419,-18.308434 -2.30743,18.308434 h -9.21772 L 109.89613,25.6503 h 9.75248 l 5.14314,18.698689 5.14314,-18.698689 h 9.75247 z m -43.894433,0 L 88.286231,47.125809 80.78135,25.6503 H 71.233204 L 83.252602,57.473782 H 93.320773 L 105.34018,25.6503 H 95.792028 Z M 158.86926,49.327396 V 25.6503 h -8.8192 v 31.823482 h 21.87497 L 175.0019,49.32647 H 158.87019 Z M 62.12408,60.67675 V 65.125 H 57.675824 L 38.562041,46.011214 19.448252,65.125 H 15 v -4.44825 c 0,0 19.113786,-19.113788 19.113786,-19.113788 L 15,22.448255 V 18 c 0,0 4.448252,0 4.448252,0 L 38.562041,37.113784 57.675824,18 h 4.448256 v 4.448255 L 43.010296,41.562036 c 0,0 19.113784,19.113786 19.113784,19.113786 z M 43.234872,18 38.562041,22.672831 33.88921,18 H 25.851425 L 38.56112,30.709697 51.271737,18 H 43.233951 Z M 51.272658,65.124074 38.56296,52.414387 25.853269,65.124074 h 8.037786 l 4.672826,-4.672827 4.672831,4.672827 h 8.037786 z m 10.852343,-18.88921 -4.672832,-4.672828 4.672832,-4.672828 V 28.851425 L 49.415307,41.561118 62.125001,54.270824 V 46.233029 Z M 15,54.27174 27.709705,41.562036 15,28.852342 v 8.037793 L 19.672828,41.562962 15,46.23579 v 8.037787 z" id="path1" style="stroke-width:0.0920384"/></g></svg>